<svg xmlns="http://www.w3.org/2000/svg" style="display:none">
  <symbol id="folder-open" viewBox="0 0 24 24" fill="none" stroke="currentColor" stroke-width="2" stroke-linecap="round" stroke-linejoin="round">
    <path d="M6 14h12l-1.5 6H4.5L6 14z"></path>
    <path d="M3 10h6l2 2h10"></path>
    <path d="M3 6h6l2 2h10v2"></path>
  </symbol>
  <symbol id="upload" viewBox="0 0 24 24" fill="none" stroke="currentColor" stroke-width="2" stroke-linecap="round" stroke-linejoin="round">
    <path d="M12 16V4"></path>
    <path d="m7 9 5-5 5 5"></path>
    <path d="M4 20h16"></path>
  </symbol>
  <symbol id="download" viewBox="0 0 24 24" fill="none" stroke="currentColor" stroke-width="2" stroke-linecap="round" stroke-linejoin="round">
    <path d="M12 4v12"></path>
    <path d="m7 11 5 5 5-5"></path>
    <path d="M4 20h16"></path>
  </symbol>
  <symbol id="printer" viewBox="0 0 24 24" fill="none" stroke="currentColor" stroke-width="2" stroke-linecap="round" stroke-linejoin="round">
    <path d="M6 9V4h12v5"></path>
    <rect x="6" y="14" width="12" height="6"></rect>
    <rect x="3" y="9" width="18" height="8" rx="2"></rect>
  </symbol>
  <symbol id="rotate-ccw" viewBox="0 0 24 24" fill="none" stroke="currentColor" stroke-width="2" stroke-linecap="round" stroke-linejoin="round">
    <path d="M3 2v6h6"></path>
    <path d="M3.5 13a8.5 8.5 0 1 0 2.5-6"></path>
  </symbol>
  <symbol id="plus" viewBox="0 0 24 24" fill="none" stroke="currentColor" stroke-width="2" stroke-linecap="round" stroke-linejoin="round">
    <path d="M12 5v14"></path>
    <path d="M5 12h14"></path>
  </symbol>
  <symbol id="search" viewBox="0 0 24 24" fill="none" stroke="currentColor" stroke-width="2" stroke-linecap="round" stroke-linejoin="round">
    <circle cx="11" cy="11" r="7"></circle>
    <path d="m20 20-3.5-3.5"></path>
  </symbol>
  <symbol id="settings" viewBox="0 0 24 24" fill="none" stroke="currentColor" stroke-width="2" stroke-linecap="round" stroke-linejoin="round">
    <circle cx="12" cy="12" r="3"></circle>
    <path d="M19.4 15a1.7 1.7 0 0 0 .3 1.8l.1.1a2 2 0 1 1-2.8 2.8l-.1-.1a1.7 1.7 0 0 0-1.8-.3 1.7 1.7 0 0 0-1 1.5V21a2 2 0 1 1-4 0v-.2a1.7 1.7 0 0 0-1-1.5 1.7 1.7 0 0 0-1.8.3l-.1.1a2 2 0 1 1-2.8-2.8l.1-.1A1.7 1.7 0 0 0 4.7 15a1.7 1.7 0 0 0-1.5-1H3a2 2 0 1 1 0-4h.2a1.7 1.7 0 0 0 1.5-1 1.7 1.7 0 0 0-.3-1.8l-.1-.1a2 2 0 1 1 2.8-2.8l.1.1a1.7 1.7 0 0 0 1.8.3h.1a1.7 1.7 0 0 0 1-1.5V3a2 2 0 1 1 4 0v.2a1.7 1.7 0 0 0 1 1.5h.1a1.7 1.7 0 0 0 1.8-.3l.1-.1a2 2 0 1 1 2.8 2.8l-.1.1a1.7 1.7 0 0 0-.3 1.8v.1a1.7 1.7 0 0 0 1.5 1H21a2 2 0 1 1 0 4h-.2a1.7 1.7 0 0 0-1.5 1Z"></path>
  </symbol>
  <symbol id="list" viewBox="0 0 24 24" fill="none" stroke="currentColor" stroke-width="2" stroke-linecap="round" stroke-linejoin="round">
    <path d="M8 6h13"></path>
    <path d="M8 12h13"></path>
    <path d="M8 18h13"></path>
    <path d="M3 6h.01"></path>
    <path d="M3 12h.01"></path>
    <path d="M3 18h.01"></path>
  </symbol>
  <symbol id="columns" viewBox="0 0 24 24" fill="none" stroke="currentColor" stroke-width="2" stroke-linecap="round" stroke-linejoin="round">
    <rect x="3" y="4" width="18" height="16" rx="2"></rect>
    <path d="M12 4v16"></path>
  </symbol>
  <symbol id="activity" viewBox="0 0 24 24" fill="none" stroke="currentColor" stroke-width="2" stroke-linecap="round" stroke-linejoin="round">
    <path d="M22 12h-4l-3 8-6-16-3 8H2"></path>
  </symbol>
  <symbol id="alert-triangle" viewBox="0 0 24 24" fill="none" stroke="currentColor" stroke-width="2" stroke-linecap="round" stroke-linejoin="round">
    <path d="m10.3 3.8-8 14A2 2 0 0 0 4 21h16a2 2 0 0 0 1.7-3.2l-8-14a2 2 0 0 0-3.4 0Z"></path>
    <path d="M12 9v4"></path>
    <path d="M12 17h.01"></path>
  </symbol>
  <symbol id="history" viewBox="0 0 24 24" fill="none" stroke="currentColor" stroke-width="2" stroke-linecap="round" stroke-linejoin="round">
    <path d="M3 3v5h5"></path>
    <path d="M3.1 13a9 9 0 1 0 3-6.7L3 8"></path>
    <path d="M12 7v5l4 2"></path>
  </symbol>
  <symbol id="x" viewBox="0 0 24 24" fill="none" stroke="currentColor" stroke-width="2" stroke-linecap="round" stroke-linejoin="round">
    <path d="m18 6-12 12"></path>
    <path d="m6 6 12 12"></path>
  </symbol>
  <symbol id="wand" viewBox="0 0 24 24" fill="none" stroke="currentColor" stroke-width="2" stroke-linecap="round" stroke-linejoin="round">
    <path d="m4 20 16-16"></path>
    <path d="m14 4 1.5-1.5"></path>
    <path d="M20 10l1.5-1.5"></path>
    <path d="m3 9 1.5-1.5"></path>
  </symbol>
  <symbol id="file-up" viewBox="0 0 24 24" fill="none" stroke="currentColor" stroke-width="2" stroke-linecap="round" stroke-linejoin="round">
    <path d="M14 2H6a2 2 0 0 0-2 2v16a2 2 0 0 0 2 2h12a2 2 0 0 0 2-2V8z"></path>
    <path d="M14 2v6h6"></path>
    <path d="M12 18v-7"></path>
    <path d="m9 14 3-3 3 3"></path>
  </symbol>
  <symbol id="clipboard-import" viewBox="0 0 24 24" fill="none" stroke="currentColor" stroke-width="2" stroke-linecap="round" stroke-linejoin="round">
    <rect x="8" y="2" width="8" height="4" rx="1"></rect>
    <path d="M9 4H6a2 2 0 0 0-2 2v14a2 2 0 0 0 2 2h12a2 2 0 0 0 2-2V6a2 2 0 0 0-2-2h-3"></path>
    <path d="M12 15V9"></path>
    <path d="m9 12 3 3 3-3"></path>
  </symbol>
</svg>
